<svg width="400" height="400" viewBox="0 0 400 400" xmlns="http://www.w3.org/2000/svg">
  <defs>
    <linearGradient id="grad" x1="0%" y1="0%" x2="100%" y2="100%">
      <stop offset="0%" stop-color="#38bdf8" stop-opacity="0.6" />
      <stop offset="100%" stop-color="#6366f1" stop-opacity="0.4" />
    </linearGradient>
  </defs>
  <rect width="400" height="400" rx="48" fill="url(#grad)" />
  <g stroke="rgba(255,255,255,0.15)" stroke-width="1">
    <path d="M40 0v400" />
    <path d="M80 0v400" />
    <path d="M120 0v400" />
    <path d="M160 0v400" />
    <path d="M200 0v400" />
    <path d="M240 0v400" />
    <path d="M280 0v400" />
    <path d="M320 0v400" />
    <path d="M360 0v400" />
    <path d="M0 40h400" />
    <path d="M0 80h400" />
    <path d="M0 120h400" />
    <path d="M0 160h400" />
    <path d="M0 200h400" />
    <path d="M0 240h400" />
    <path d="M0 280h400" />
    <path d="M0 320h400" />
    <path d="M0 360h400" />
  </g>
</svg>
